<mxfile host="app.diagrams.net" modified="2024-02-06T12:17:07.826Z" agent="Mozilla/5.0 (Windows NT 10.0; Win64; x64) AppleWebKit/537.36 (KHTML, like Gecko) Chrome/121.0.0.0 Safari/537.36" etag="jYXONDTFGQIxR2Nm0-HA" version="23.1.1" type="device">
  <diagram name="Page-1" id="29fzF8OQAzDZK-t26Yre">
    <mxGraphModel dx="3862" dy="2474" grid="1" gridSize="10" guides="1" tooltips="1" connect="1" arrows="1" fold="1" page="1" pageScale="1" pageWidth="827" pageHeight="1169" math="0" shadow="0">
      <root>
        <mxCell id="0" />
        <mxCell id="1" parent="0" />
        <mxCell id="M44Ef_Evv4XJ78SG_mm_-11" value="" style="rounded=0;whiteSpace=wrap;html=1;" vertex="1" parent="1">
          <mxGeometry x="-430" y="-610" width="1450" height="1220" as="geometry" />
        </mxCell>
        <mxCell id="M44Ef_Evv4XJ78SG_mm_-138" value="Questions" style="rounded=0;whiteSpace=wrap;html=1;labelBackgroundColor=none;fillColor=#0050ef;fontColor=#ffffff;strokeColor=#001DBC;" vertex="1" parent="1">
          <mxGeometry x="580" y="315.5" width="70" height="30" as="geometry" />
        </mxCell>
        <mxCell id="M44Ef_Evv4XJ78SG_mm_-139" value="Module" style="rounded=0;whiteSpace=wrap;html=1;labelBackgroundColor=none;fillColor=#0050ef;fontColor=#ffffff;strokeColor=#001DBC;" vertex="1" parent="1">
          <mxGeometry x="205" y="175" width="70" height="30" as="geometry" />
        </mxCell>
        <mxCell id="M44Ef_Evv4XJ78SG_mm_-140" value="Quiz" style="rounded=0;whiteSpace=wrap;html=1;labelBackgroundColor=none;fillColor=#0050ef;fontColor=#ffffff;strokeColor=#001DBC;" vertex="1" parent="1">
          <mxGeometry x="380" y="-120" width="70" height="30" as="geometry" />
        </mxCell>
        <mxCell id="M44Ef_Evv4XJ78SG_mm_-141" style="edgeStyle=orthogonalEdgeStyle;rounded=0;orthogonalLoop=1;jettySize=auto;html=1;exitX=0.5;exitY=1;exitDx=0;exitDy=0;entryX=0;entryY=0.5;entryDx=0;entryDy=0;" edge="1" parent="1" source="M44Ef_Evv4XJ78SG_mm_-143" target="M44Ef_Evv4XJ78SG_mm_-186">
          <mxGeometry relative="1" as="geometry" />
        </mxCell>
        <mxCell id="M44Ef_Evv4XJ78SG_mm_-142" style="edgeStyle=orthogonalEdgeStyle;rounded=0;orthogonalLoop=1;jettySize=auto;html=1;exitX=0.5;exitY=0;exitDx=0;exitDy=0;entryX=0;entryY=0.5;entryDx=0;entryDy=0;" edge="1" parent="1" source="M44Ef_Evv4XJ78SG_mm_-143" target="M44Ef_Evv4XJ78SG_mm_-184">
          <mxGeometry relative="1" as="geometry" />
        </mxCell>
        <mxCell id="M44Ef_Evv4XJ78SG_mm_-143" value="User" style="rounded=0;whiteSpace=wrap;html=1;labelBackgroundColor=none;fillColor=#0050ef;fontColor=#ffffff;strokeColor=#001DBC;" vertex="1" parent="1">
          <mxGeometry x="-120" y="-2.5" width="70" height="30" as="geometry" />
        </mxCell>
        <mxCell id="M44Ef_Evv4XJ78SG_mm_-144" style="edgeStyle=none;rounded=0;orthogonalLoop=1;jettySize=auto;html=1;exitX=1;exitY=1;exitDx=0;exitDy=0;entryX=0;entryY=0.5;entryDx=0;entryDy=0;endArrow=none;endFill=0;labelBackgroundColor=none;fontColor=default;" edge="1" parent="1" source="M44Ef_Evv4XJ78SG_mm_-145" target="M44Ef_Evv4XJ78SG_mm_-143">
          <mxGeometry relative="1" as="geometry" />
        </mxCell>
        <mxCell id="M44Ef_Evv4XJ78SG_mm_-145" value="&lt;u&gt;username&lt;/u&gt;" style="ellipse;whiteSpace=wrap;html=1;labelBackgroundColor=none;fillColor=#b1ddf0;strokeColor=#10739e;" vertex="1" parent="1">
          <mxGeometry x="-200" y="-85" width="70" height="30" as="geometry" />
        </mxCell>
        <mxCell id="M44Ef_Evv4XJ78SG_mm_-146" value="description" style="ellipse;whiteSpace=wrap;html=1;labelBackgroundColor=none;fillColor=#b1ddf0;strokeColor=#10739e;" vertex="1" parent="1">
          <mxGeometry x="260" y="320" width="70" height="30" as="geometry" />
        </mxCell>
        <mxCell id="M44Ef_Evv4XJ78SG_mm_-147" value="title" style="ellipse;whiteSpace=wrap;html=1;labelBackgroundColor=none;fillColor=#b1ddf0;strokeColor=#10739e;" vertex="1" parent="1">
          <mxGeometry x="180" y="325" width="70" height="20" as="geometry" />
        </mxCell>
        <mxCell id="M44Ef_Evv4XJ78SG_mm_-148" value="&lt;u&gt;module id&lt;/u&gt;" style="ellipse;whiteSpace=wrap;html=1;labelBackgroundColor=none;fillColor=#b1ddf0;strokeColor=#10739e;" vertex="1" parent="1">
          <mxGeometry x="65" y="260" width="70" height="30" as="geometry" />
        </mxCell>
        <mxCell id="M44Ef_Evv4XJ78SG_mm_-149" value="name" style="ellipse;whiteSpace=wrap;html=1;labelBackgroundColor=none;fillColor=#b1ddf0;strokeColor=#10739e;" vertex="1" parent="1">
          <mxGeometry x="-360" y="7.5" width="59" height="27.5" as="geometry" />
        </mxCell>
        <mxCell id="M44Ef_Evv4XJ78SG_mm_-150" value="created_at" style="ellipse;whiteSpace=wrap;html=1;labelBackgroundColor=none;fillColor=#b1ddf0;strokeColor=#10739e;" vertex="1" parent="1">
          <mxGeometry x="-275" y="110" width="60" height="33.75" as="geometry" />
        </mxCell>
        <mxCell id="M44Ef_Evv4XJ78SG_mm_-151" value="password" style="ellipse;whiteSpace=wrap;html=1;labelBackgroundColor=none;fillColor=#b1ddf0;strokeColor=#10739e;" vertex="1" parent="1">
          <mxGeometry x="-340" y="-40" width="70" height="30" as="geometry" />
        </mxCell>
        <mxCell id="M44Ef_Evv4XJ78SG_mm_-152" value="created_at" style="ellipse;whiteSpace=wrap;html=1;labelBackgroundColor=none;fillColor=#b1ddf0;strokeColor=#10739e;" vertex="1" parent="1">
          <mxGeometry x="370" y="250" width="70" height="30" as="geometry" />
        </mxCell>
        <mxCell id="M44Ef_Evv4XJ78SG_mm_-153" style="edgeStyle=none;rounded=0;orthogonalLoop=1;jettySize=auto;html=1;endArrow=none;endFill=0;entryX=1;entryY=0;entryDx=0;entryDy=0;exitX=0;exitY=0.5;exitDx=0;exitDy=0;labelBackgroundColor=none;fontColor=default;" edge="1" parent="1" source="M44Ef_Evv4XJ78SG_mm_-143" target="M44Ef_Evv4XJ78SG_mm_-263">
          <mxGeometry relative="1" as="geometry">
            <mxPoint x="-455" y="2.5" as="sourcePoint" />
            <mxPoint x="-715.3064286894289" y="-210.5" as="targetPoint" />
          </mxGeometry>
        </mxCell>
        <mxCell id="M44Ef_Evv4XJ78SG_mm_-154" style="edgeStyle=none;rounded=0;orthogonalLoop=1;jettySize=auto;html=1;endArrow=none;endFill=0;entryX=0.942;entryY=0.716;entryDx=0;entryDy=0;exitX=0;exitY=0.5;exitDx=0;exitDy=0;entryPerimeter=0;labelBackgroundColor=none;fontColor=default;" edge="1" parent="1" source="M44Ef_Evv4XJ78SG_mm_-143" target="M44Ef_Evv4XJ78SG_mm_-151">
          <mxGeometry relative="1" as="geometry">
            <mxPoint x="-455" y="-27.5" as="sourcePoint" />
            <mxPoint x="-705.3064286894289" y="-210.5" as="targetPoint" />
          </mxGeometry>
        </mxCell>
        <mxCell id="M44Ef_Evv4XJ78SG_mm_-155" style="edgeStyle=none;rounded=0;orthogonalLoop=1;jettySize=auto;html=1;exitX=0;exitY=0.5;exitDx=0;exitDy=0;endArrow=none;endFill=0;entryX=1;entryY=1;entryDx=0;entryDy=0;labelBackgroundColor=none;fontColor=default;" edge="1" parent="1" source="M44Ef_Evv4XJ78SG_mm_-143" target="M44Ef_Evv4XJ78SG_mm_-234">
          <mxGeometry relative="1" as="geometry">
            <mxPoint x="-469.3064286894289" y="-7.5" as="sourcePoint" />
            <mxPoint x="-545.3064286894289" y="-0.5" as="targetPoint" />
          </mxGeometry>
        </mxCell>
        <mxCell id="M44Ef_Evv4XJ78SG_mm_-156" value="created_at" style="ellipse;whiteSpace=wrap;html=1;labelBackgroundColor=none;fillColor=#b1ddf0;strokeColor=#10739e;" vertex="1" parent="1">
          <mxGeometry x="530" y="425.5" width="70" height="30" as="geometry" />
        </mxCell>
        <mxCell id="M44Ef_Evv4XJ78SG_mm_-157" value="module_id" style="ellipse;whiteSpace=wrap;html=1;labelBackgroundColor=none;fillColor=#b1ddf0;strokeColor=#10739e;" vertex="1" parent="1">
          <mxGeometry x="620" y="-175" width="70" height="30" as="geometry" />
        </mxCell>
        <mxCell id="M44Ef_Evv4XJ78SG_mm_-158" value="title" style="ellipse;whiteSpace=wrap;html=1;labelBackgroundColor=none;fillColor=#b1ddf0;strokeColor=#10739e;" vertex="1" parent="1">
          <mxGeometry x="640" y="-130" width="70" height="30" as="geometry" />
        </mxCell>
        <mxCell id="M44Ef_Evv4XJ78SG_mm_-159" value="no_of_que" style="ellipse;whiteSpace=wrap;html=1;labelBackgroundColor=none;fillColor=#b1ddf0;strokeColor=#10739e;" vertex="1" parent="1">
          <mxGeometry x="620" y="-90" width="70" height="30" as="geometry" />
        </mxCell>
        <mxCell id="M44Ef_Evv4XJ78SG_mm_-160" value="&lt;u&gt;que_id&lt;/u&gt;" style="ellipse;whiteSpace=wrap;html=1;labelBackgroundColor=none;fillColor=#b1ddf0;strokeColor=#10739e;" vertex="1" parent="1">
          <mxGeometry x="620" y="198" width="70" height="30" as="geometry" />
        </mxCell>
        <mxCell id="M44Ef_Evv4XJ78SG_mm_-161" value="optionB" style="ellipse;whiteSpace=wrap;html=1;labelBackgroundColor=none;fillColor=#b1ddf0;strokeColor=#10739e;" vertex="1" parent="1">
          <mxGeometry x="750" y="368" width="70" height="30" as="geometry" />
        </mxCell>
        <mxCell id="M44Ef_Evv4XJ78SG_mm_-162" value="explanation" style="ellipse;whiteSpace=wrap;html=1;labelBackgroundColor=none;fillColor=#b1ddf0;strokeColor=#10739e;" vertex="1" parent="1">
          <mxGeometry x="580" y="458" width="70" height="30" as="geometry" />
        </mxCell>
        <mxCell id="M44Ef_Evv4XJ78SG_mm_-163" value="&lt;u&gt;quiz_id&lt;/u&gt;" style="ellipse;whiteSpace=wrap;html=1;labelBackgroundColor=none;fillColor=#b1ddf0;strokeColor=#10739e;" vertex="1" parent="1">
          <mxGeometry x="570" y="-205" width="70" height="30" as="geometry" />
        </mxCell>
        <mxCell id="M44Ef_Evv4XJ78SG_mm_-164" style="edgeStyle=none;rounded=0;orthogonalLoop=1;jettySize=auto;html=1;exitX=0.5;exitY=1;exitDx=0;exitDy=0;labelBackgroundColor=none;fontColor=default;" edge="1" parent="1">
          <mxGeometry relative="1" as="geometry">
            <mxPoint x="705.0000000000002" y="-90" as="sourcePoint" />
            <mxPoint x="705.0000000000002" y="-90" as="targetPoint" />
          </mxGeometry>
        </mxCell>
        <mxCell id="M44Ef_Evv4XJ78SG_mm_-165" value="has" style="rhombus;whiteSpace=wrap;html=1;labelBackgroundColor=none;fillColor=#d0cee2;strokeColor=#56517e;" vertex="1" parent="1">
          <mxGeometry x="450" y="95" width="65" height="60" as="geometry" />
        </mxCell>
        <mxCell id="M44Ef_Evv4XJ78SG_mm_-166" value="Response" style="rounded=0;whiteSpace=wrap;html=1;labelBackgroundColor=none;fillColor=#0050ef;fontColor=#ffffff;strokeColor=#001DBC;" vertex="1" parent="1">
          <mxGeometry x="570" y="-350" width="70" height="30" as="geometry" />
        </mxCell>
        <mxCell id="M44Ef_Evv4XJ78SG_mm_-167" value="attempt_no" style="ellipse;whiteSpace=wrap;html=1;labelBackgroundColor=none;fillColor=#b1ddf0;strokeColor=#10739e;" vertex="1" parent="1">
          <mxGeometry x="650" y="-470" width="70" height="30" as="geometry" />
        </mxCell>
        <mxCell id="M44Ef_Evv4XJ78SG_mm_-168" value="marks" style="ellipse;whiteSpace=wrap;html=1;labelBackgroundColor=none;fillColor=#b1ddf0;strokeColor=#10739e;" vertex="1" parent="1">
          <mxGeometry x="570" y="-490" width="70" height="30" as="geometry" />
        </mxCell>
        <mxCell id="M44Ef_Evv4XJ78SG_mm_-169" value="&lt;u&gt;response_id&lt;/u&gt;" style="ellipse;whiteSpace=wrap;html=1;labelBackgroundColor=none;fillColor=#b1ddf0;strokeColor=#10739e;" vertex="1" parent="1">
          <mxGeometry x="420" y="-390" width="80" height="30" as="geometry" />
        </mxCell>
        <mxCell id="M44Ef_Evv4XJ78SG_mm_-170" value="created_at" style="ellipse;whiteSpace=wrap;html=1;labelBackgroundColor=none;fillColor=#b1ddf0;strokeColor=#10739e;" vertex="1" parent="1">
          <mxGeometry x="720" y="-390" width="70" height="30" as="geometry" />
        </mxCell>
        <mxCell id="M44Ef_Evv4XJ78SG_mm_-171" value="quiz_id" style="ellipse;whiteSpace=wrap;html=1;labelBackgroundColor=none;fillColor=#b1ddf0;strokeColor=#10739e;" vertex="1" parent="1">
          <mxGeometry x="490" y="-470" width="70" height="30" as="geometry" />
        </mxCell>
        <mxCell id="M44Ef_Evv4XJ78SG_mm_-172" value="username" style="ellipse;whiteSpace=wrap;html=1;labelBackgroundColor=none;fillColor=#b1ddf0;strokeColor=#10739e;" vertex="1" parent="1">
          <mxGeometry x="445" y="-440" width="70" height="30" as="geometry" />
        </mxCell>
        <mxCell id="M44Ef_Evv4XJ78SG_mm_-173" value="response" style="ellipse;whiteSpace=wrap;html=1;labelBackgroundColor=none;fillColor=#b1ddf0;strokeColor=#10739e;" vertex="1" parent="1">
          <mxGeometry x="710" y="-440" width="70" height="30" as="geometry" />
        </mxCell>
        <mxCell id="M44Ef_Evv4XJ78SG_mm_-174" value="question" style="ellipse;whiteSpace=wrap;html=1;labelBackgroundColor=none;fillColor=#b1ddf0;strokeColor=#10739e;" vertex="1" parent="1">
          <mxGeometry x="740" y="238" width="70" height="30" as="geometry" />
        </mxCell>
        <mxCell id="M44Ef_Evv4XJ78SG_mm_-175" value="correct_option" style="ellipse;whiteSpace=wrap;html=1;labelBackgroundColor=none;fillColor=#b1ddf0;strokeColor=#10739e;" vertex="1" parent="1">
          <mxGeometry x="640" y="478" width="80" height="40" as="geometry" />
        </mxCell>
        <mxCell id="M44Ef_Evv4XJ78SG_mm_-176" value="image" style="ellipse;whiteSpace=wrap;html=1;labelBackgroundColor=none;fillColor=#b1ddf0;strokeColor=#10739e;" vertex="1" parent="1">
          <mxGeometry x="750" y="278" width="70" height="30" as="geometry" />
        </mxCell>
        <mxCell id="M44Ef_Evv4XJ78SG_mm_-177" value="quiz_id" style="ellipse;whiteSpace=wrap;html=1;labelBackgroundColor=none;fillColor=#b1ddf0;strokeColor=#10739e;" vertex="1" parent="1">
          <mxGeometry x="690" y="205.5" width="70" height="30" as="geometry" />
        </mxCell>
        <mxCell id="M44Ef_Evv4XJ78SG_mm_-178" value="optionD" style="ellipse;whiteSpace=wrap;html=1;labelBackgroundColor=none;fillColor=#b1ddf0;strokeColor=#10739e;" vertex="1" parent="1">
          <mxGeometry x="720" y="468" width="70" height="30" as="geometry" />
        </mxCell>
        <mxCell id="M44Ef_Evv4XJ78SG_mm_-179" value="optionC" style="ellipse;whiteSpace=wrap;html=1;labelBackgroundColor=none;fillColor=#b1ddf0;strokeColor=#10739e;" vertex="1" parent="1">
          <mxGeometry x="740" y="418" width="70" height="30" as="geometry" />
        </mxCell>
        <mxCell id="M44Ef_Evv4XJ78SG_mm_-180" value="optionA" style="ellipse;whiteSpace=wrap;html=1;labelBackgroundColor=none;fillColor=#b1ddf0;strokeColor=#10739e;" vertex="1" parent="1">
          <mxGeometry x="750" y="325.5" width="70" height="30" as="geometry" />
        </mxCell>
        <mxCell id="M44Ef_Evv4XJ78SG_mm_-181" value="contains" style="rhombus;whiteSpace=wrap;html=1;labelBackgroundColor=none;fillColor=#d0cee2;strokeColor=#56517e;" vertex="1" parent="1">
          <mxGeometry x="290" y="95" width="65" height="60" as="geometry" />
        </mxCell>
        <mxCell id="M44Ef_Evv4XJ78SG_mm_-182" style="edgeStyle=none;rounded=0;orthogonalLoop=1;jettySize=auto;html=1;exitX=0.5;exitY=1;exitDx=0;exitDy=0;labelBackgroundColor=none;fontColor=default;" edge="1" parent="1">
          <mxGeometry relative="1" as="geometry">
            <mxPoint x="15" y="120" as="sourcePoint" />
            <mxPoint x="15" y="120" as="targetPoint" />
          </mxGeometry>
        </mxCell>
        <mxCell id="M44Ef_Evv4XJ78SG_mm_-183" style="edgeStyle=none;rounded=0;orthogonalLoop=1;jettySize=auto;html=1;endArrow=none;endFill=0;entryX=1;entryY=0;entryDx=0;entryDy=0;exitX=0;exitY=0.5;exitDx=0;exitDy=0;labelBackgroundColor=none;fontColor=default;" edge="1" parent="1" source="M44Ef_Evv4XJ78SG_mm_-143" target="M44Ef_Evv4XJ78SG_mm_-150">
          <mxGeometry relative="1" as="geometry">
            <mxPoint x="-356" y="12.5" as="sourcePoint" />
            <mxPoint x="-418.5" y="162.5" as="targetPoint" />
          </mxGeometry>
        </mxCell>
        <mxCell id="M44Ef_Evv4XJ78SG_mm_-184" value="Can Manage and attempt" style="rhombus;whiteSpace=wrap;html=1;labelBackgroundColor=none;fillColor=#d0cee2;strokeColor=#56517e;" vertex="1" parent="1">
          <mxGeometry x="80" y="-153.75" width="130" height="97.5" as="geometry" />
        </mxCell>
        <mxCell id="M44Ef_Evv4XJ78SG_mm_-185" value="" style="endArrow=classic;html=1;rounded=0;exitX=1;exitY=0.5;exitDx=0;exitDy=0;entryX=0;entryY=0.5;entryDx=0;entryDy=0;labelBackgroundColor=none;fontColor=default;" edge="1" parent="1" source="M44Ef_Evv4XJ78SG_mm_-184" target="M44Ef_Evv4XJ78SG_mm_-140">
          <mxGeometry width="50" height="50" relative="1" as="geometry">
            <mxPoint x="-120" y="-10" as="sourcePoint" />
            <mxPoint x="65.00000000000023" y="-105" as="targetPoint" />
          </mxGeometry>
        </mxCell>
        <mxCell id="M44Ef_Evv4XJ78SG_mm_-186" value="Can Create" style="rhombus;whiteSpace=wrap;html=1;labelBackgroundColor=none;fillColor=#d0cee2;strokeColor=#56517e;" vertex="1" parent="1">
          <mxGeometry x="25" y="148.75" width="95" height="82.5" as="geometry" />
        </mxCell>
        <mxCell id="M44Ef_Evv4XJ78SG_mm_-187" style="edgeStyle=none;rounded=0;orthogonalLoop=1;jettySize=auto;html=1;exitX=0;exitY=1;exitDx=0;exitDy=0;endArrow=none;endFill=0;entryX=1;entryY=0.5;entryDx=0;entryDy=0;labelBackgroundColor=none;fontColor=default;" edge="1" parent="1" source="M44Ef_Evv4XJ78SG_mm_-157" target="M44Ef_Evv4XJ78SG_mm_-140">
          <mxGeometry relative="1" as="geometry">
            <mxPoint x="475.6935713105711" y="-140" as="sourcePoint" />
            <mxPoint x="480" y="-100" as="targetPoint" />
          </mxGeometry>
        </mxCell>
        <mxCell id="M44Ef_Evv4XJ78SG_mm_-188" style="edgeStyle=none;rounded=0;orthogonalLoop=1;jettySize=auto;html=1;exitX=0;exitY=0.5;exitDx=0;exitDy=0;endArrow=none;endFill=0;entryX=1;entryY=0.5;entryDx=0;entryDy=0;labelBackgroundColor=none;fontColor=default;" edge="1" parent="1" source="M44Ef_Evv4XJ78SG_mm_-159" target="M44Ef_Evv4XJ78SG_mm_-140">
          <mxGeometry relative="1" as="geometry">
            <mxPoint x="475.6935713105711" y="-140" as="sourcePoint" />
            <mxPoint x="399.6935713105711" y="-133" as="targetPoint" />
          </mxGeometry>
        </mxCell>
        <mxCell id="M44Ef_Evv4XJ78SG_mm_-189" style="edgeStyle=none;rounded=0;orthogonalLoop=1;jettySize=auto;html=1;exitX=0;exitY=0.5;exitDx=0;exitDy=0;endArrow=none;endFill=0;entryX=1;entryY=0.5;entryDx=0;entryDy=0;labelBackgroundColor=none;fontColor=default;" edge="1" parent="1" source="M44Ef_Evv4XJ78SG_mm_-158" target="M44Ef_Evv4XJ78SG_mm_-140">
          <mxGeometry relative="1" as="geometry">
            <mxPoint x="475.6935713105711" y="-140" as="sourcePoint" />
            <mxPoint x="399.6935713105711" y="-133" as="targetPoint" />
          </mxGeometry>
        </mxCell>
        <mxCell id="M44Ef_Evv4XJ78SG_mm_-190" style="edgeStyle=none;rounded=0;orthogonalLoop=1;jettySize=auto;html=1;exitX=0.5;exitY=1;exitDx=0;exitDy=0;endArrow=none;endFill=0;entryX=1;entryY=0.5;entryDx=0;entryDy=0;labelBackgroundColor=none;fontColor=default;" edge="1" parent="1" source="M44Ef_Evv4XJ78SG_mm_-163" target="M44Ef_Evv4XJ78SG_mm_-140">
          <mxGeometry relative="1" as="geometry">
            <mxPoint x="475.6935713105711" y="-140" as="sourcePoint" />
            <mxPoint x="399.6935713105711" y="-133" as="targetPoint" />
          </mxGeometry>
        </mxCell>
        <mxCell id="M44Ef_Evv4XJ78SG_mm_-191" style="edgeStyle=none;rounded=0;orthogonalLoop=1;jettySize=auto;html=1;exitX=1;exitY=0.5;exitDx=0;exitDy=0;endArrow=none;endFill=0;entryX=0.5;entryY=1;entryDx=0;entryDy=0;labelBackgroundColor=none;fontColor=default;" edge="1" parent="1" source="M44Ef_Evv4XJ78SG_mm_-148" target="M44Ef_Evv4XJ78SG_mm_-139">
          <mxGeometry relative="1" as="geometry">
            <mxPoint x="295.6935713105711" y="340" as="sourcePoint" />
            <mxPoint x="219.6935713105711" y="347" as="targetPoint" />
          </mxGeometry>
        </mxCell>
        <mxCell id="M44Ef_Evv4XJ78SG_mm_-192" style="edgeStyle=none;rounded=0;orthogonalLoop=1;jettySize=auto;html=1;exitX=0.5;exitY=0;exitDx=0;exitDy=0;endArrow=none;endFill=0;entryX=0.5;entryY=1;entryDx=0;entryDy=0;labelBackgroundColor=none;fontColor=default;" edge="1" parent="1" source="M44Ef_Evv4XJ78SG_mm_-146" target="M44Ef_Evv4XJ78SG_mm_-139">
          <mxGeometry relative="1" as="geometry">
            <mxPoint x="295.6935713105711" y="340" as="sourcePoint" />
            <mxPoint x="219.6935713105711" y="347" as="targetPoint" />
          </mxGeometry>
        </mxCell>
        <mxCell id="M44Ef_Evv4XJ78SG_mm_-193" style="edgeStyle=none;rounded=0;orthogonalLoop=1;jettySize=auto;html=1;exitX=0.5;exitY=0;exitDx=0;exitDy=0;endArrow=none;endFill=0;entryX=0.5;entryY=1;entryDx=0;entryDy=0;labelBackgroundColor=none;fontColor=default;" edge="1" parent="1" source="M44Ef_Evv4XJ78SG_mm_-147" target="M44Ef_Evv4XJ78SG_mm_-139">
          <mxGeometry relative="1" as="geometry">
            <mxPoint x="295.6935713105711" y="340" as="sourcePoint" />
            <mxPoint x="219.6935713105711" y="347" as="targetPoint" />
          </mxGeometry>
        </mxCell>
        <mxCell id="M44Ef_Evv4XJ78SG_mm_-194" style="edgeStyle=none;rounded=0;orthogonalLoop=1;jettySize=auto;html=1;exitX=0;exitY=0.5;exitDx=0;exitDy=0;endArrow=none;endFill=0;entryX=0.5;entryY=1;entryDx=0;entryDy=0;labelBackgroundColor=none;fontColor=default;" edge="1" parent="1" source="M44Ef_Evv4XJ78SG_mm_-152" target="M44Ef_Evv4XJ78SG_mm_-139">
          <mxGeometry relative="1" as="geometry">
            <mxPoint x="295.6935713105711" y="340" as="sourcePoint" />
            <mxPoint x="219.6935713105711" y="347" as="targetPoint" />
          </mxGeometry>
        </mxCell>
        <mxCell id="M44Ef_Evv4XJ78SG_mm_-195" style="edgeStyle=none;rounded=0;orthogonalLoop=1;jettySize=auto;html=1;endArrow=none;endFill=0;entryX=1;entryY=1;entryDx=0;entryDy=0;labelBackgroundColor=none;fontColor=default;" edge="1" parent="1" source="M44Ef_Evv4XJ78SG_mm_-175" target="M44Ef_Evv4XJ78SG_mm_-138">
          <mxGeometry relative="1" as="geometry">
            <mxPoint x="630.6935713105711" y="275.5" as="sourcePoint" />
            <mxPoint x="554.6935713105711" y="282.5" as="targetPoint" />
          </mxGeometry>
        </mxCell>
        <mxCell id="M44Ef_Evv4XJ78SG_mm_-196" style="edgeStyle=none;rounded=0;orthogonalLoop=1;jettySize=auto;html=1;exitX=0.5;exitY=0;exitDx=0;exitDy=0;endArrow=none;endFill=0;entryX=1;entryY=1;entryDx=0;entryDy=0;labelBackgroundColor=none;fontColor=default;" edge="1" parent="1" source="M44Ef_Evv4XJ78SG_mm_-178" target="M44Ef_Evv4XJ78SG_mm_-138">
          <mxGeometry relative="1" as="geometry">
            <mxPoint x="630.6935713105711" y="275.5" as="sourcePoint" />
            <mxPoint x="554.6935713105711" y="282.5" as="targetPoint" />
          </mxGeometry>
        </mxCell>
        <mxCell id="M44Ef_Evv4XJ78SG_mm_-197" style="edgeStyle=none;rounded=0;orthogonalLoop=1;jettySize=auto;html=1;exitX=0;exitY=0;exitDx=0;exitDy=0;endArrow=none;endFill=0;entryX=1;entryY=1;entryDx=0;entryDy=0;labelBackgroundColor=none;fontColor=default;" edge="1" parent="1" source="M44Ef_Evv4XJ78SG_mm_-179" target="M44Ef_Evv4XJ78SG_mm_-138">
          <mxGeometry relative="1" as="geometry">
            <mxPoint x="630.6935713105711" y="275.5" as="sourcePoint" />
            <mxPoint x="554.6935713105711" y="282.5" as="targetPoint" />
          </mxGeometry>
        </mxCell>
        <mxCell id="M44Ef_Evv4XJ78SG_mm_-198" style="edgeStyle=none;rounded=0;orthogonalLoop=1;jettySize=auto;html=1;exitX=0;exitY=0.5;exitDx=0;exitDy=0;endArrow=none;endFill=0;entryX=1;entryY=1;entryDx=0;entryDy=0;labelBackgroundColor=none;fontColor=default;" edge="1" parent="1" source="M44Ef_Evv4XJ78SG_mm_-161" target="M44Ef_Evv4XJ78SG_mm_-138">
          <mxGeometry relative="1" as="geometry">
            <mxPoint x="630.6935713105711" y="275.5" as="sourcePoint" />
            <mxPoint x="554.6935713105711" y="282.5" as="targetPoint" />
          </mxGeometry>
        </mxCell>
        <mxCell id="M44Ef_Evv4XJ78SG_mm_-199" style="edgeStyle=none;rounded=0;orthogonalLoop=1;jettySize=auto;html=1;exitX=0;exitY=0.5;exitDx=0;exitDy=0;endArrow=none;endFill=0;entryX=1;entryY=1;entryDx=0;entryDy=0;labelBackgroundColor=none;fontColor=default;" edge="1" parent="1" source="M44Ef_Evv4XJ78SG_mm_-180" target="M44Ef_Evv4XJ78SG_mm_-138">
          <mxGeometry relative="1" as="geometry">
            <mxPoint x="630.6935713105711" y="275.5" as="sourcePoint" />
            <mxPoint x="554.6935713105711" y="282.5" as="targetPoint" />
          </mxGeometry>
        </mxCell>
        <mxCell id="M44Ef_Evv4XJ78SG_mm_-200" style="edgeStyle=none;rounded=0;orthogonalLoop=1;jettySize=auto;html=1;exitX=0;exitY=0.5;exitDx=0;exitDy=0;endArrow=none;endFill=0;entryX=1;entryY=1;entryDx=0;entryDy=0;labelBackgroundColor=none;fontColor=default;" edge="1" parent="1" source="M44Ef_Evv4XJ78SG_mm_-176" target="M44Ef_Evv4XJ78SG_mm_-138">
          <mxGeometry relative="1" as="geometry">
            <mxPoint x="630.6935713105711" y="275.5" as="sourcePoint" />
            <mxPoint x="554.6935713105711" y="282.5" as="targetPoint" />
          </mxGeometry>
        </mxCell>
        <mxCell id="M44Ef_Evv4XJ78SG_mm_-201" style="edgeStyle=none;rounded=0;orthogonalLoop=1;jettySize=auto;html=1;exitX=0;exitY=0.5;exitDx=0;exitDy=0;endArrow=none;endFill=0;entryX=1;entryY=1;entryDx=0;entryDy=0;labelBackgroundColor=none;fontColor=default;" edge="1" parent="1" source="M44Ef_Evv4XJ78SG_mm_-174" target="M44Ef_Evv4XJ78SG_mm_-138">
          <mxGeometry relative="1" as="geometry">
            <mxPoint x="630.6935713105711" y="275.5" as="sourcePoint" />
            <mxPoint x="554.6935713105711" y="282.5" as="targetPoint" />
          </mxGeometry>
        </mxCell>
        <mxCell id="M44Ef_Evv4XJ78SG_mm_-202" style="edgeStyle=none;rounded=0;orthogonalLoop=1;jettySize=auto;html=1;exitX=0;exitY=1;exitDx=0;exitDy=0;endArrow=none;endFill=0;entryX=1;entryY=1;entryDx=0;entryDy=0;labelBackgroundColor=none;fontColor=default;" edge="1" parent="1" source="M44Ef_Evv4XJ78SG_mm_-177" target="M44Ef_Evv4XJ78SG_mm_-138">
          <mxGeometry relative="1" as="geometry">
            <mxPoint x="630.6935713105711" y="275.5" as="sourcePoint" />
            <mxPoint x="554.6935713105711" y="282.5" as="targetPoint" />
          </mxGeometry>
        </mxCell>
        <mxCell id="M44Ef_Evv4XJ78SG_mm_-203" style="edgeStyle=none;rounded=0;orthogonalLoop=1;jettySize=auto;html=1;exitX=0.5;exitY=1;exitDx=0;exitDy=0;endArrow=none;endFill=0;entryX=1;entryY=1;entryDx=0;entryDy=0;labelBackgroundColor=none;fontColor=default;" edge="1" parent="1" source="M44Ef_Evv4XJ78SG_mm_-160" target="M44Ef_Evv4XJ78SG_mm_-138">
          <mxGeometry relative="1" as="geometry">
            <mxPoint x="630.6935713105711" y="275.5" as="sourcePoint" />
            <mxPoint x="554.6935713105711" y="282.5" as="targetPoint" />
          </mxGeometry>
        </mxCell>
        <mxCell id="M44Ef_Evv4XJ78SG_mm_-204" style="edgeStyle=none;rounded=0;orthogonalLoop=1;jettySize=auto;html=1;exitX=0.5;exitY=0;exitDx=0;exitDy=0;endArrow=none;endFill=0;entryX=1;entryY=1;entryDx=0;entryDy=0;labelBackgroundColor=none;fontColor=default;" edge="1" parent="1" source="M44Ef_Evv4XJ78SG_mm_-156" target="M44Ef_Evv4XJ78SG_mm_-138">
          <mxGeometry relative="1" as="geometry">
            <mxPoint x="690.6935713105711" y="345.5" as="sourcePoint" />
            <mxPoint x="614.6935713105711" y="352.5" as="targetPoint" />
          </mxGeometry>
        </mxCell>
        <mxCell id="M44Ef_Evv4XJ78SG_mm_-205" style="edgeStyle=none;rounded=0;orthogonalLoop=1;jettySize=auto;html=1;exitX=0.5;exitY=0;exitDx=0;exitDy=0;endArrow=none;endFill=0;entryX=1;entryY=1;entryDx=0;entryDy=0;labelBackgroundColor=none;fontColor=default;" edge="1" parent="1" source="M44Ef_Evv4XJ78SG_mm_-162" target="M44Ef_Evv4XJ78SG_mm_-138">
          <mxGeometry relative="1" as="geometry">
            <mxPoint x="690.6935713105711" y="345.5" as="sourcePoint" />
            <mxPoint x="614.6935713105711" y="352.5" as="targetPoint" />
          </mxGeometry>
        </mxCell>
        <mxCell id="M44Ef_Evv4XJ78SG_mm_-206" value="" style="endArrow=classic;html=1;rounded=0;exitX=1;exitY=0.5;exitDx=0;exitDy=0;entryX=0.5;entryY=0;entryDx=0;entryDy=0;edgeStyle=orthogonalEdgeStyle;labelBackgroundColor=none;fontColor=default;" edge="1" parent="1" source="M44Ef_Evv4XJ78SG_mm_-165" target="M44Ef_Evv4XJ78SG_mm_-138">
          <mxGeometry width="50" height="50" relative="1" as="geometry">
            <mxPoint x="572.5" y="72.5" as="sourcePoint" />
            <mxPoint x="615" y="7.5" as="targetPoint" />
          </mxGeometry>
        </mxCell>
        <mxCell id="M44Ef_Evv4XJ78SG_mm_-207" style="edgeStyle=none;rounded=0;orthogonalLoop=1;jettySize=auto;html=1;exitX=0;exitY=0.5;exitDx=0;exitDy=0;endArrow=none;endFill=0;entryX=1;entryY=1;entryDx=0;entryDy=0;labelBackgroundColor=none;fontColor=default;" edge="1" parent="1" source="M44Ef_Evv4XJ78SG_mm_-165" target="M44Ef_Evv4XJ78SG_mm_-140">
          <mxGeometry relative="1" as="geometry">
            <mxPoint x="485.6935713105711" y="50" as="sourcePoint" />
            <mxPoint x="409.6935713105711" y="57" as="targetPoint" />
          </mxGeometry>
        </mxCell>
        <mxCell id="M44Ef_Evv4XJ78SG_mm_-208" style="edgeStyle=none;rounded=0;orthogonalLoop=1;jettySize=auto;html=1;exitX=0.5;exitY=1;exitDx=0;exitDy=0;endArrow=none;endFill=0;entryX=0.5;entryY=0;entryDx=0;entryDy=0;labelBackgroundColor=none;fontColor=default;" edge="1" parent="1" source="M44Ef_Evv4XJ78SG_mm_-168" target="M44Ef_Evv4XJ78SG_mm_-166">
          <mxGeometry relative="1" as="geometry">
            <mxPoint x="735.6935713105711" y="-360" as="sourcePoint" />
            <mxPoint x="659.6935713105711" y="-353" as="targetPoint" />
          </mxGeometry>
        </mxCell>
        <mxCell id="M44Ef_Evv4XJ78SG_mm_-209" style="edgeStyle=none;rounded=0;orthogonalLoop=1;jettySize=auto;html=1;exitX=0.5;exitY=1;exitDx=0;exitDy=0;endArrow=none;endFill=0;entryX=0.5;entryY=0;entryDx=0;entryDy=0;labelBackgroundColor=none;fontColor=default;" edge="1" parent="1" source="M44Ef_Evv4XJ78SG_mm_-167" target="M44Ef_Evv4XJ78SG_mm_-166">
          <mxGeometry relative="1" as="geometry">
            <mxPoint x="735.6935713105711" y="-360" as="sourcePoint" />
            <mxPoint x="659.6935713105711" y="-353" as="targetPoint" />
          </mxGeometry>
        </mxCell>
        <mxCell id="M44Ef_Evv4XJ78SG_mm_-210" style="edgeStyle=none;rounded=0;orthogonalLoop=1;jettySize=auto;html=1;exitX=0;exitY=1;exitDx=0;exitDy=0;endArrow=none;endFill=0;entryX=0.5;entryY=0;entryDx=0;entryDy=0;labelBackgroundColor=none;fontColor=default;" edge="1" parent="1" source="M44Ef_Evv4XJ78SG_mm_-173" target="M44Ef_Evv4XJ78SG_mm_-166">
          <mxGeometry relative="1" as="geometry">
            <mxPoint x="735.6935713105711" y="-360" as="sourcePoint" />
            <mxPoint x="659.6935713105711" y="-353" as="targetPoint" />
          </mxGeometry>
        </mxCell>
        <mxCell id="M44Ef_Evv4XJ78SG_mm_-211" style="edgeStyle=none;rounded=0;orthogonalLoop=1;jettySize=auto;html=1;exitX=1;exitY=1;exitDx=0;exitDy=0;endArrow=none;endFill=0;entryX=0.5;entryY=0;entryDx=0;entryDy=0;labelBackgroundColor=none;fontColor=default;" edge="1" parent="1" source="M44Ef_Evv4XJ78SG_mm_-172" target="M44Ef_Evv4XJ78SG_mm_-166">
          <mxGeometry relative="1" as="geometry">
            <mxPoint x="735.6935713105711" y="-360" as="sourcePoint" />
            <mxPoint x="659.6935713105711" y="-353" as="targetPoint" />
          </mxGeometry>
        </mxCell>
        <mxCell id="M44Ef_Evv4XJ78SG_mm_-212" style="edgeStyle=none;rounded=0;orthogonalLoop=1;jettySize=auto;html=1;exitX=0.5;exitY=1;exitDx=0;exitDy=0;endArrow=none;endFill=0;entryX=0.5;entryY=0;entryDx=0;entryDy=0;labelBackgroundColor=none;fontColor=default;" edge="1" parent="1" source="M44Ef_Evv4XJ78SG_mm_-171" target="M44Ef_Evv4XJ78SG_mm_-166">
          <mxGeometry relative="1" as="geometry">
            <mxPoint x="735.6935713105711" y="-360" as="sourcePoint" />
            <mxPoint x="659.6935713105711" y="-353" as="targetPoint" />
          </mxGeometry>
        </mxCell>
        <mxCell id="M44Ef_Evv4XJ78SG_mm_-213" style="edgeStyle=none;rounded=0;orthogonalLoop=1;jettySize=auto;html=1;exitX=0;exitY=0.5;exitDx=0;exitDy=0;endArrow=none;endFill=0;entryX=0.5;entryY=0;entryDx=0;entryDy=0;labelBackgroundColor=none;fontColor=default;" edge="1" parent="1" source="M44Ef_Evv4XJ78SG_mm_-170" target="M44Ef_Evv4XJ78SG_mm_-166">
          <mxGeometry relative="1" as="geometry">
            <mxPoint x="735.6935713105711" y="-360" as="sourcePoint" />
            <mxPoint x="659.6935713105711" y="-353" as="targetPoint" />
          </mxGeometry>
        </mxCell>
        <mxCell id="M44Ef_Evv4XJ78SG_mm_-214" style="edgeStyle=none;rounded=0;orthogonalLoop=1;jettySize=auto;html=1;exitX=0.5;exitY=0;exitDx=0;exitDy=0;endArrow=none;endFill=0;entryX=1;entryY=0.5;entryDx=0;entryDy=0;labelBackgroundColor=none;fontColor=default;" edge="1" parent="1" source="M44Ef_Evv4XJ78SG_mm_-166" target="M44Ef_Evv4XJ78SG_mm_-169">
          <mxGeometry relative="1" as="geometry">
            <mxPoint x="635.6935713105711" y="-360" as="sourcePoint" />
            <mxPoint x="559.6935713105711" y="-353" as="targetPoint" />
          </mxGeometry>
        </mxCell>
        <mxCell id="M44Ef_Evv4XJ78SG_mm_-215" style="edgeStyle=orthogonalEdgeStyle;rounded=0;orthogonalLoop=1;jettySize=auto;html=1;exitX=0;exitY=0.5;exitDx=0;exitDy=0;endArrow=none;endFill=0;entryX=0.5;entryY=0;entryDx=0;entryDy=0;labelBackgroundColor=none;fontColor=default;" edge="1" parent="1" source="M44Ef_Evv4XJ78SG_mm_-181" target="M44Ef_Evv4XJ78SG_mm_-139">
          <mxGeometry relative="1" as="geometry">
            <mxPoint x="245.6935713105711" y="130" as="sourcePoint" />
            <mxPoint x="169.6935713105711" y="137" as="targetPoint" />
          </mxGeometry>
        </mxCell>
        <mxCell id="M44Ef_Evv4XJ78SG_mm_-216" value="" style="endArrow=classic;html=1;rounded=0;exitX=1;exitY=0.5;exitDx=0;exitDy=0;entryX=0;entryY=1;entryDx=0;entryDy=0;edgeStyle=orthogonalEdgeStyle;labelBackgroundColor=none;fontColor=default;" edge="1" parent="1" source="M44Ef_Evv4XJ78SG_mm_-181" target="M44Ef_Evv4XJ78SG_mm_-140">
          <mxGeometry width="50" height="50" relative="1" as="geometry">
            <mxPoint x="300" y="-20" as="sourcePoint" />
            <mxPoint x="350" y="-70" as="targetPoint" />
          </mxGeometry>
        </mxCell>
        <mxCell id="M44Ef_Evv4XJ78SG_mm_-217" value="M" style="text;strokeColor=none;align=center;fillColor=none;html=1;verticalAlign=middle;whiteSpace=wrap;rounded=0;labelBackgroundColor=none;" vertex="1" parent="1">
          <mxGeometry x="585" y="-320" width="60" height="30" as="geometry" />
        </mxCell>
        <mxCell id="M44Ef_Evv4XJ78SG_mm_-218" value="M" style="text;strokeColor=none;align=center;fillColor=none;html=1;verticalAlign=middle;whiteSpace=wrap;rounded=0;labelBackgroundColor=none;" vertex="1" parent="1">
          <mxGeometry x="330" y="-135" width="60" height="30" as="geometry" />
        </mxCell>
        <mxCell id="M44Ef_Evv4XJ78SG_mm_-219" value="M" style="text;strokeColor=none;align=center;fillColor=none;html=1;verticalAlign=middle;whiteSpace=wrap;rounded=0;labelBackgroundColor=none;" vertex="1" parent="1">
          <mxGeometry x="334" y="-80" width="60" height="30" as="geometry" />
        </mxCell>
        <mxCell id="M44Ef_Evv4XJ78SG_mm_-220" value="1" style="text;strokeColor=none;align=center;fillColor=none;html=1;verticalAlign=middle;whiteSpace=wrap;rounded=0;labelBackgroundColor=none;" vertex="1" parent="1">
          <mxGeometry x="370" y="-145" width="60" height="30" as="geometry" />
        </mxCell>
        <mxCell id="M44Ef_Evv4XJ78SG_mm_-221" value="1" style="text;strokeColor=none;align=center;fillColor=none;html=1;verticalAlign=middle;whiteSpace=wrap;rounded=0;labelBackgroundColor=none;" vertex="1" parent="1">
          <mxGeometry x="-90" y="35" width="60" height="30" as="geometry" />
        </mxCell>
        <mxCell id="M44Ef_Evv4XJ78SG_mm_-222" value="" style="endArrow=classic;html=1;rounded=0;entryX=0;entryY=0.5;entryDx=0;entryDy=0;labelBackgroundColor=none;fontColor=default;" edge="1" parent="1" source="M44Ef_Evv4XJ78SG_mm_-186" target="M44Ef_Evv4XJ78SG_mm_-139">
          <mxGeometry width="50" height="50" relative="1" as="geometry">
            <mxPoint x="-110" y="130" as="sourcePoint" />
            <mxPoint x="35" y="170" as="targetPoint" />
          </mxGeometry>
        </mxCell>
        <mxCell id="M44Ef_Evv4XJ78SG_mm_-223" value="1" style="text;strokeColor=none;align=center;fillColor=none;html=1;verticalAlign=middle;whiteSpace=wrap;rounded=0;labelBackgroundColor=none;" vertex="1" parent="1">
          <mxGeometry x="400" y="-85" width="60" height="30" as="geometry" />
        </mxCell>
        <mxCell id="M44Ef_Evv4XJ78SG_mm_-224" value="M" style="text;strokeColor=none;align=center;fillColor=none;html=1;verticalAlign=middle;whiteSpace=wrap;rounded=0;labelBackgroundColor=none;" vertex="1" parent="1">
          <mxGeometry x="570" y="283" width="60" height="30" as="geometry" />
        </mxCell>
        <mxCell id="M44Ef_Evv4XJ78SG_mm_-225" value="profile_img" style="ellipse;whiteSpace=wrap;html=1;labelBackgroundColor=none;fillColor=#b1ddf0;strokeColor=#10739e;" vertex="1" parent="1">
          <mxGeometry x="-320" y="76.25" width="60" height="30" as="geometry" />
        </mxCell>
        <mxCell id="M44Ef_Evv4XJ78SG_mm_-226" value="" style="endArrow=none;html=1;rounded=0;exitX=1;exitY=0.5;exitDx=0;exitDy=0;entryX=0;entryY=0.5;entryDx=0;entryDy=0;labelBackgroundColor=none;fontColor=default;" edge="1" parent="1" source="M44Ef_Evv4XJ78SG_mm_-225" target="M44Ef_Evv4XJ78SG_mm_-143">
          <mxGeometry width="50" height="50" relative="1" as="geometry">
            <mxPoint x="-565" y="2.5" as="sourcePoint" />
            <mxPoint x="-465" y="-7.5" as="targetPoint" />
          </mxGeometry>
        </mxCell>
        <mxCell id="M44Ef_Evv4XJ78SG_mm_-227" value="username" style="ellipse;whiteSpace=wrap;html=1;labelBackgroundColor=none;fillColor=#b1ddf0;strokeColor=#10739e;" vertex="1" parent="1">
          <mxGeometry x="110" y="300" width="70" height="30" as="geometry" />
        </mxCell>
        <mxCell id="M44Ef_Evv4XJ78SG_mm_-228" value="" style="endArrow=none;html=1;rounded=0;entryX=0.5;entryY=1;entryDx=0;entryDy=0;exitX=1;exitY=0;exitDx=0;exitDy=0;labelBackgroundColor=none;fontColor=default;" edge="1" parent="1" source="M44Ef_Evv4XJ78SG_mm_-227" target="M44Ef_Evv4XJ78SG_mm_-139">
          <mxGeometry width="50" height="50" relative="1" as="geometry">
            <mxPoint x="330" y="290" as="sourcePoint" />
            <mxPoint x="380" y="240" as="targetPoint" />
          </mxGeometry>
        </mxCell>
        <mxCell id="M44Ef_Evv4XJ78SG_mm_-229" value="open_to_guest" style="ellipse;whiteSpace=wrap;html=1;labelBackgroundColor=none;fillColor=#b1ddf0;strokeColor=#10739e;" vertex="1" parent="1">
          <mxGeometry x="555" y="-15" width="90" height="35" as="geometry" />
        </mxCell>
        <mxCell id="M44Ef_Evv4XJ78SG_mm_-230" value="" style="endArrow=none;html=1;rounded=0;exitX=1;exitY=0.5;exitDx=0;exitDy=0;entryX=0;entryY=0;entryDx=0;entryDy=0;labelBackgroundColor=none;fontColor=default;" edge="1" parent="1" source="M44Ef_Evv4XJ78SG_mm_-140" target="M44Ef_Evv4XJ78SG_mm_-229">
          <mxGeometry width="50" height="50" relative="1" as="geometry">
            <mxPoint x="590" y="10" as="sourcePoint" />
            <mxPoint x="640" y="-40" as="targetPoint" />
          </mxGeometry>
        </mxCell>
        <mxCell id="M44Ef_Evv4XJ78SG_mm_-231" value="total_attempted" style="ellipse;whiteSpace=wrap;html=1;labelBackgroundColor=none;fillColor=#b1ddf0;strokeColor=#10739e;" vertex="1" parent="1">
          <mxGeometry x="610" y="-50" width="90" height="30" as="geometry" />
        </mxCell>
        <mxCell id="M44Ef_Evv4XJ78SG_mm_-232" value="" style="endArrow=none;html=1;rounded=0;exitX=1;exitY=0.5;exitDx=0;exitDy=0;entryX=0;entryY=0.5;entryDx=0;entryDy=0;labelBackgroundColor=none;fontColor=default;" edge="1" parent="1" source="M44Ef_Evv4XJ78SG_mm_-140" target="M44Ef_Evv4XJ78SG_mm_-231">
          <mxGeometry width="50" height="50" relative="1" as="geometry">
            <mxPoint x="570" y="80" as="sourcePoint" />
            <mxPoint x="620" y="30" as="targetPoint" />
          </mxGeometry>
        </mxCell>
        <mxCell id="M44Ef_Evv4XJ78SG_mm_-233" value="no_of_quizzes" style="ellipse;whiteSpace=wrap;html=1;labelBackgroundColor=none;fillColor=#b1ddf0;strokeColor=#10739e;" vertex="1" parent="1">
          <mxGeometry x="314" y="285" width="80" height="35" as="geometry" />
        </mxCell>
        <mxCell id="M44Ef_Evv4XJ78SG_mm_-234" value="email" style="ellipse;whiteSpace=wrap;html=1;labelBackgroundColor=none;fillColor=#b1ddf0;strokeColor=#10739e;" vertex="1" parent="1">
          <mxGeometry x="-280" y="-70" width="70" height="30" as="geometry" />
        </mxCell>
        <mxCell id="M44Ef_Evv4XJ78SG_mm_-235" value="" style="endArrow=none;html=1;rounded=0;exitX=1;exitY=0.5;exitDx=0;exitDy=0;entryX=0;entryY=0.5;entryDx=0;entryDy=0;labelBackgroundColor=none;fontColor=default;" edge="1" parent="1" source="M44Ef_Evv4XJ78SG_mm_-149" target="M44Ef_Evv4XJ78SG_mm_-143">
          <mxGeometry width="50" height="50" relative="1" as="geometry">
            <mxPoint x="-355" y="42.5" as="sourcePoint" />
            <mxPoint x="-305" y="-7.5" as="targetPoint" />
          </mxGeometry>
        </mxCell>
        <mxCell id="M44Ef_Evv4XJ78SG_mm_-236" value="" style="endArrow=none;html=1;rounded=0;exitX=0.5;exitY=1;exitDx=0;exitDy=0;entryX=0;entryY=0;entryDx=0;entryDy=0;labelBackgroundColor=none;fontColor=default;" edge="1" parent="1" source="M44Ef_Evv4XJ78SG_mm_-139" target="M44Ef_Evv4XJ78SG_mm_-233">
          <mxGeometry width="50" height="50" relative="1" as="geometry">
            <mxPoint x="230" y="280" as="sourcePoint" />
            <mxPoint x="280" y="230" as="targetPoint" />
          </mxGeometry>
        </mxCell>
        <mxCell id="M44Ef_Evv4XJ78SG_mm_-237" value="1" style="text;strokeColor=none;align=center;fillColor=none;html=1;verticalAlign=middle;whiteSpace=wrap;rounded=0;labelBackgroundColor=none;" vertex="1" parent="1">
          <mxGeometry x="-90" y="-40" width="60" height="30" as="geometry" />
        </mxCell>
        <mxCell id="M44Ef_Evv4XJ78SG_mm_-238" value="M" style="text;strokeColor=none;align=center;fillColor=none;html=1;verticalAlign=middle;whiteSpace=wrap;rounded=0;labelBackgroundColor=none;" vertex="1" parent="1">
          <mxGeometry x="160" y="190" width="60" height="30" as="geometry" />
        </mxCell>
        <mxCell id="M44Ef_Evv4XJ78SG_mm_-239" value="1" style="text;strokeColor=none;align=center;fillColor=none;html=1;verticalAlign=middle;whiteSpace=wrap;rounded=0;labelBackgroundColor=none;" vertex="1" parent="1">
          <mxGeometry x="190" y="145" width="60" height="30" as="geometry" />
        </mxCell>
        <mxCell id="M44Ef_Evv4XJ78SG_mm_-240" value="created_at" style="ellipse;whiteSpace=wrap;html=1;labelBackgroundColor=none;fillColor=#b1ddf0;strokeColor=#10739e;" vertex="1" parent="1">
          <mxGeometry x="472.5" y="10" width="77.5" height="32.5" as="geometry" />
        </mxCell>
        <mxCell id="M44Ef_Evv4XJ78SG_mm_-241" value="" style="endArrow=none;html=1;rounded=0;exitX=1;exitY=0.5;exitDx=0;exitDy=0;entryX=0.5;entryY=0;entryDx=0;entryDy=0;labelBackgroundColor=none;fontColor=default;" edge="1" parent="1" source="M44Ef_Evv4XJ78SG_mm_-140" target="M44Ef_Evv4XJ78SG_mm_-240">
          <mxGeometry width="50" height="50" relative="1" as="geometry">
            <mxPoint x="590" y="-30" as="sourcePoint" />
            <mxPoint x="640" y="-80" as="targetPoint" />
          </mxGeometry>
        </mxCell>
        <mxCell id="M44Ef_Evv4XJ78SG_mm_-242" value="user_type" style="ellipse;whiteSpace=wrap;html=1;labelBackgroundColor=none;fillColor=#b1ddf0;strokeColor=#10739e;" vertex="1" parent="1">
          <mxGeometry x="-220" y="143.75" width="79" height="22.5" as="geometry" />
        </mxCell>
        <mxCell id="M44Ef_Evv4XJ78SG_mm_-243" style="edgeStyle=none;rounded=0;orthogonalLoop=1;jettySize=auto;html=1;endArrow=none;endFill=0;entryX=0.5;entryY=0;entryDx=0;entryDy=0;exitX=0;exitY=0.5;exitDx=0;exitDy=0;labelBackgroundColor=none;fontColor=default;" edge="1" parent="1" source="M44Ef_Evv4XJ78SG_mm_-143" target="M44Ef_Evv4XJ78SG_mm_-242">
          <mxGeometry relative="1" as="geometry">
            <mxPoint x="-346" y="22.5" as="sourcePoint" />
            <mxPoint x="-408.5" y="172.5" as="targetPoint" />
          </mxGeometry>
        </mxCell>
        <mxCell id="M44Ef_Evv4XJ78SG_mm_-244" style="rounded=0;orthogonalLoop=1;jettySize=auto;html=1;exitX=0.5;exitY=0;exitDx=0;exitDy=0;entryX=1;entryY=1;entryDx=0;entryDy=0;endArrow=none;endFill=0;" edge="1" parent="1" source="M44Ef_Evv4XJ78SG_mm_-245" target="M44Ef_Evv4XJ78SG_mm_-258">
          <mxGeometry relative="1" as="geometry" />
        </mxCell>
        <mxCell id="M44Ef_Evv4XJ78SG_mm_-245" value="Guest Response" style="rounded=0;whiteSpace=wrap;html=1;labelBackgroundColor=none;fillColor=#0050ef;fontColor=#ffffff;strokeColor=#001DBC;" vertex="1" parent="1">
          <mxGeometry x="170" y="-350" width="70" height="30" as="geometry" />
        </mxCell>
        <mxCell id="M44Ef_Evv4XJ78SG_mm_-246" value="marks" style="ellipse;whiteSpace=wrap;html=1;labelBackgroundColor=none;fillColor=#b1ddf0;strokeColor=#10739e;" vertex="1" parent="1">
          <mxGeometry x="275" y="-430" width="70" height="30" as="geometry" />
        </mxCell>
        <mxCell id="M44Ef_Evv4XJ78SG_mm_-247" value="&lt;u&gt;quiz_id&lt;/u&gt;" style="ellipse;whiteSpace=wrap;html=1;labelBackgroundColor=none;fillColor=#b1ddf0;strokeColor=#10739e;" vertex="1" parent="1">
          <mxGeometry x="210" y="-460" width="70" height="30" as="geometry" />
        </mxCell>
        <mxCell id="M44Ef_Evv4XJ78SG_mm_-248" value="&lt;u&gt;guestname&lt;/u&gt;" style="ellipse;whiteSpace=wrap;html=1;labelBackgroundColor=none;fillColor=#b1ddf0;strokeColor=#10739e;" vertex="1" parent="1">
          <mxGeometry x="120" y="-460" width="70" height="30" as="geometry" />
        </mxCell>
        <mxCell id="M44Ef_Evv4XJ78SG_mm_-249" style="edgeStyle=none;rounded=0;orthogonalLoop=1;jettySize=auto;html=1;exitX=0;exitY=1;exitDx=0;exitDy=0;endArrow=none;endFill=0;entryX=0.5;entryY=0;entryDx=0;entryDy=0;labelBackgroundColor=none;fontColor=default;" edge="1" parent="1" source="M44Ef_Evv4XJ78SG_mm_-246" target="M44Ef_Evv4XJ78SG_mm_-245">
          <mxGeometry relative="1" as="geometry">
            <mxPoint x="335.6935713105711" y="-360" as="sourcePoint" />
            <mxPoint x="259.6935713105711" y="-353" as="targetPoint" />
          </mxGeometry>
        </mxCell>
        <mxCell id="M44Ef_Evv4XJ78SG_mm_-250" style="edgeStyle=none;rounded=0;orthogonalLoop=1;jettySize=auto;html=1;exitX=1;exitY=1;exitDx=0;exitDy=0;endArrow=none;endFill=0;entryX=0.5;entryY=0;entryDx=0;entryDy=0;labelBackgroundColor=none;fontColor=default;" edge="1" parent="1" source="M44Ef_Evv4XJ78SG_mm_-248" target="M44Ef_Evv4XJ78SG_mm_-245">
          <mxGeometry relative="1" as="geometry">
            <mxPoint x="335.6935713105711" y="-360" as="sourcePoint" />
            <mxPoint x="259.6935713105711" y="-353" as="targetPoint" />
          </mxGeometry>
        </mxCell>
        <mxCell id="M44Ef_Evv4XJ78SG_mm_-251" style="edgeStyle=none;rounded=0;orthogonalLoop=1;jettySize=auto;html=1;exitX=0.5;exitY=1;exitDx=0;exitDy=0;endArrow=none;endFill=0;entryX=0.5;entryY=0;entryDx=0;entryDy=0;labelBackgroundColor=none;fontColor=default;" edge="1" parent="1" source="M44Ef_Evv4XJ78SG_mm_-247" target="M44Ef_Evv4XJ78SG_mm_-245">
          <mxGeometry relative="1" as="geometry">
            <mxPoint x="335.6935713105711" y="-360" as="sourcePoint" />
            <mxPoint x="259.6935713105711" y="-353" as="targetPoint" />
          </mxGeometry>
        </mxCell>
        <mxCell id="M44Ef_Evv4XJ78SG_mm_-252" value="M" style="text;strokeColor=none;align=center;fillColor=none;html=1;verticalAlign=middle;whiteSpace=wrap;rounded=0;labelBackgroundColor=none;" vertex="1" parent="1">
          <mxGeometry x="182.5" y="-320" width="60" height="30" as="geometry" />
        </mxCell>
        <mxCell id="M44Ef_Evv4XJ78SG_mm_-253" value="" style="endArrow=none;dashed=1;html=1;rounded=0;labelBackgroundColor=none;fontColor=default;" edge="1" parent="1">
          <mxGeometry width="50" height="50" relative="1" as="geometry">
            <mxPoint x="505" y="-445.13" as="sourcePoint" />
            <mxPoint x="545" y="-445.13" as="targetPoint" />
          </mxGeometry>
        </mxCell>
        <mxCell id="M44Ef_Evv4XJ78SG_mm_-254" value="" style="endArrow=none;dashed=1;html=1;rounded=0;entryX=0.848;entryY=0.777;entryDx=0;entryDy=0;entryPerimeter=0;labelBackgroundColor=none;fontColor=default;" edge="1" parent="1" target="M44Ef_Evv4XJ78SG_mm_-172">
          <mxGeometry width="50" height="50" relative="1" as="geometry">
            <mxPoint x="455" y="-416.45" as="sourcePoint" />
            <mxPoint x="495" y="-416.45" as="targetPoint" />
          </mxGeometry>
        </mxCell>
        <mxCell id="M44Ef_Evv4XJ78SG_mm_-255" value="" style="endArrow=none;dashed=1;html=1;rounded=0;entryX=0.848;entryY=0.777;entryDx=0;entryDy=0;entryPerimeter=0;labelBackgroundColor=none;fontColor=default;" edge="1" parent="1">
          <mxGeometry width="50" height="50" relative="1" as="geometry">
            <mxPoint x="630.5" y="-151.45" as="sourcePoint" />
            <mxPoint x="679.5" y="-152" as="targetPoint" />
          </mxGeometry>
        </mxCell>
        <mxCell id="M44Ef_Evv4XJ78SG_mm_-256" value="" style="endArrow=none;dashed=1;html=1;rounded=0;entryX=0.848;entryY=0.777;entryDx=0;entryDy=0;entryPerimeter=0;labelBackgroundColor=none;fontColor=default;" edge="1" parent="1">
          <mxGeometry width="50" height="50" relative="1" as="geometry">
            <mxPoint x="120.5" y="323" as="sourcePoint" />
            <mxPoint x="169.5" y="322.45" as="targetPoint" />
          </mxGeometry>
        </mxCell>
        <mxCell id="M44Ef_Evv4XJ78SG_mm_-257" value="" style="endArrow=none;dashed=1;html=1;rounded=0;labelBackgroundColor=none;fontColor=default;endSize=6;" edge="1" parent="1">
          <mxGeometry width="50" height="50" relative="1" as="geometry">
            <mxPoint x="706" y="230.55" as="sourcePoint" />
            <mxPoint x="745" y="230" as="targetPoint" />
          </mxGeometry>
        </mxCell>
        <mxCell id="M44Ef_Evv4XJ78SG_mm_-258" value="created_at" style="ellipse;whiteSpace=wrap;html=1;labelBackgroundColor=none;fillColor=#b1ddf0;strokeColor=#10739e;" vertex="1" parent="1">
          <mxGeometry x="60" y="-430" width="70" height="30" as="geometry" />
        </mxCell>
        <mxCell id="M44Ef_Evv4XJ78SG_mm_-259" value="" style="endArrow=none;html=1;rounded=0;entryX=0.363;entryY=0.002;entryDx=0;entryDy=0;edgeStyle=orthogonalEdgeStyle;entryPerimeter=0;" edge="1" parent="1" target="M44Ef_Evv4XJ78SG_mm_-252">
          <mxGeometry width="50" height="50" relative="1" as="geometry">
            <mxPoint x="410" y="-120" as="sourcePoint" />
            <mxPoint x="460" y="-230" as="targetPoint" />
            <Array as="points">
              <mxPoint x="410" y="-270" />
              <mxPoint x="205" y="-270" />
              <mxPoint x="205" y="-320" />
            </Array>
          </mxGeometry>
        </mxCell>
        <mxCell id="M44Ef_Evv4XJ78SG_mm_-260" value="" style="endArrow=none;html=1;rounded=0;entryX=0.354;entryY=0.026;entryDx=0;entryDy=0;entryPerimeter=0;edgeStyle=orthogonalEdgeStyle;" edge="1" parent="1" target="M44Ef_Evv4XJ78SG_mm_-217">
          <mxGeometry width="50" height="50" relative="1" as="geometry">
            <mxPoint x="420" y="-120" as="sourcePoint" />
            <mxPoint x="570" y="-310" as="targetPoint" />
            <Array as="points">
              <mxPoint x="420" y="-270" />
              <mxPoint x="606" y="-270" />
            </Array>
          </mxGeometry>
        </mxCell>
        <mxCell id="M44Ef_Evv4XJ78SG_mm_-261" value="1" style="text;strokeColor=none;align=center;fillColor=none;html=1;verticalAlign=middle;whiteSpace=wrap;rounded=0;labelBackgroundColor=none;" vertex="1" parent="1">
          <mxGeometry x="400" y="-145" width="60" height="30" as="geometry" />
        </mxCell>
        <mxCell id="M44Ef_Evv4XJ78SG_mm_-262" value="" style="edgeStyle=none;rounded=0;orthogonalLoop=1;jettySize=auto;html=1;endArrow=none;endFill=0;entryX=1;entryY=0;entryDx=0;entryDy=0;exitX=0;exitY=0.5;exitDx=0;exitDy=0;labelBackgroundColor=none;fontColor=default;" edge="1" parent="1" source="M44Ef_Evv4XJ78SG_mm_-143" target="M44Ef_Evv4XJ78SG_mm_-263">
          <mxGeometry relative="1" as="geometry">
            <mxPoint x="-120" y="13" as="sourcePoint" />
            <mxPoint x="-498" y="112" as="targetPoint" />
          </mxGeometry>
        </mxCell>
        <mxCell id="M44Ef_Evv4XJ78SG_mm_-263" value="description" style="ellipse;whiteSpace=wrap;html=1;labelBackgroundColor=none;fillColor=#b1ddf0;strokeColor=#10739e;" vertex="1" parent="1">
          <mxGeometry x="-340" y="42.5" width="70" height="30" as="geometry" />
        </mxCell>
      </root>
    </mxGraphModel>
  </diagram>
</mxfile>
